HIERARCHY
ROOT Hips
{
	OFFSET 0.00000 0.00000 0.00000
	CHANNELS 6 Xposition Yposition Zposition Zrotation Yrotation Xrotation 
	JOINT LHipJoint
	{
		OFFSET 0 0 0
		CHANNELS 3 Zrotation Yrotation Xrotation
		JOINT LeftHip
		{
			OFFSET 1.36443 -1.53315 0.80540
			CHANNELS 3 Zrotation Yrotation Xrotation
			JOINT LeftKnee
			{
				OFFSET 2.27494 -6.25036 0.00000
				CHANNELS 3 Zrotation Yrotation Xrotation
				JOINT LeftAnkle
				{
					OFFSET 2.17461 -5.97470 0.00000
					CHANNELS 3 Zrotation Yrotation Xrotation
					JOINT LeftToe
					{
						OFFSET 0.22144 -0.60841 2.08966
						CHANNELS 3 Zrotation Yrotation Xrotation
						End Site
						{
							OFFSET 0.00000 -0.00000 1.09206
						}
					}
				}
			}
		}
	}
	JOINT RHipJoint
	{
		OFFSET 0 0 0
		CHANNELS 3 Zrotation Yrotation Xrotation
		JOINT RightHip
		{
			OFFSET -1.29957 -1.53315 0.80539
			CHANNELS 3 Zrotation Yrotation Xrotation
			JOINT RightKnee
			{
				OFFSET -2.23917 -6.15209 0.00000
				CHANNELS 3 Zrotation Yrotation Xrotation
				JOINT RightAnkle
				{
					OFFSET -2.18029 -5.99030 0.00000
					CHANNELS 3 Zrotation Yrotation Xrotation
					JOINT RightToe
					{
						OFFSET -0.22354 -0.61416 1.89975
						CHANNELS 3 Zrotation Yrotation Xrotation
						End Site
						{
							OFFSET -0.00000 -0.00000 1.00221
						}
					}
				}
			}
		}
	}
	JOINT lowerback
	{
		OFFSET 0 0 0
		CHANNELS 3 Zrotation Yrotation Xrotation
		JOINT Chest
		{
			OFFSET -0.04725 2.10352 -0.01215
			CHANNELS 3 Zrotation Yrotation Xrotation
			JOINT Chest2
			{
				OFFSET 0.04471 2.09612 -0.07192
				CHANNELS 3 Zrotation Yrotation Xrotation
				JOINT lowerneck
				{
					OFFSET 0 0 0
					CHANNELS 3 Zrotation Yrotation Xrotation
					JOINT Neck
					{
						OFFSET -0.01586 1.38087 0.11506
						CHANNELS 3 Zrotation Yrotation Xrotation
						JOINT Head
						{
							OFFSET -0.01055 1.38869 -0.12115
							CHANNELS 3 Zrotation Yrotation Xrotation
							End Site
							{
								OFFSET -0.00310 1.39537 -0.05348
							}
						}
					}
				}
				JOINT LeftCollar
				{
					OFFSET 0 0 0
					CHANNELS 3 Zrotation Yrotation Xrotation
					JOINT LeftShoulder
					{
						OFFSET 2.71932 0.62535 0.37316
CHANNELS 3 Zrotation Xrotation Yrotation
						JOINT LeftElbow
						{
OFFSET 0 -4.473660 0.000000
CHANNELS 3 Zrotation Xrotation Yrotation
							JOINT LeftWrist
							{
OFFSET 0 -3.199480 -0.000000
CHANNELS 3 Zrotation Xrotation Yrotation
								JOINT lhand
								{
									OFFSET 0 0 0
CHANNELS 3 Zrotation Xrotation Yrotation
									JOINT LFingers
									{
OFFSET 0 -0.492670 -0.000000
CHANNELS 3 Zrotation Xrotation Yrotation
										End Site
										{
OFFSET 0 -0.397200 -0.000000
										}
									}
								}
								JOINT LThumb
								{
OFFSET 0 0.000000 0.000000
CHANNELS 3 Zrotation Xrotation Yrotation
									End Site
									{
OFFSET 0 -0.403270 0.403270
									}
								}
							}
						}
					}
				}
				JOINT RightCollar
				{
					OFFSET 0 0 0
					CHANNELS 3 Zrotation Yrotation Xrotation
					JOINT RightShoulder
					{
						OFFSET -2.97334 0.70851 0.47631
CHANNELS 3 Zrotation Xrotation Yrotation
						JOINT RightElbow
						{
OFFSET 0 -4.326900 -0.000000
CHANNELS 3 Zrotation Xrotation Yrotation
							JOINT RightWrist
							{
OFFSET 0 -3.189600 0.000000
CHANNELS 3 Zrotation Xrotation Yrotation
								JOINT rhand
								{
									OFFSET 0 0 0
CHANNELS 3 Zrotation Xrotation Yrotation
									JOINT RFingers
									{
OFFSET 0 -0.464500 -0.000000
CHANNELS 3 Zrotation Xrotation Yrotation
										End Site
										{
OFFSET 0 -0.374490 -0.000000
										}
									}
								}
								JOINT RThumb
								{
OFFSET 0 0.000000 0.000000
CHANNELS 3 Zrotation Xrotation Yrotation
									End Site
									{
OFFSET 0 -0.380210 0.380210
									}
								}
							}
						}
					}
				}
			}
		}
	}
}
MOTION
Frames: 10
Frame Time: 0.008333333333333333
8.302359 14.675101 2.392368 2.174377 -2.586780 -6.376044 0.000000 0.000000 0.000000 -18.069691 1.311802 -14.904441 6.980005 15.315044 48.798758 2.126352 0.664343 -27.845589 0.566601 -4.820870 -13.398443 0.000000 0.000000 0.000000 16.707920 2.849008 -13.266535 -6.839630 -15.195291 48.264999 -1.067313 -9.749867 -25.314362 -0.687908 5.302695 -14.773930 -2.917929 -0.132135 -0.108308 1.836749 -0.172923 3.361131 3.528377 -0.204949 3.538993 -1.215704 -1.267926 -13.624172 -0.729651 -1.376791 10.299368 -0.148715 -0.774251 5.334113 0.000000 0.000000 0.000000 69.023346 -57.767536 -7.161673 15.430991 -24.743047 3.404276 26.911606 -8.117611 -1.355936 0.000000 0.000000 0.000000 -7.125000 0.000000 0.000000 0.271029 31.500197 0.089499 0.000000 0.000000 0.000000 -64.847676 -69.930168 -14.035128 -9.411637 -15.813934 -1.310039 -19.657065 35.254410 19.685479 0.000000 0.000000 0.000000 7.125000 0.000000 0.000000 8.715795 50.579066 -1.206223
8.304078 14.676703 2.391704 2.228130 -2.586741 -6.375731 0.000000 0.000000 0.000000 -18.145672 1.296606 -14.902722 6.979614 15.314731 48.797273 2.123657 0.722628 -27.848167 0.573203 -4.848411 -13.476730 0.000000 0.000000 0.000000 16.642759 2.863423 -13.272004 -6.840489 -15.196072 48.268398 -1.064540 -9.756000 -25.297486 -0.688924 5.306484 -14.784790 -2.973988 -0.137604 -0.085924 1.827647 -0.179369 3.355193 3.550332 -0.209246 3.521179 -1.252113 -1.284177 -13.476115 -0.673554 -1.402574 10.158304 -0.125745 -0.783353 5.266140 0.000000 0.000000 0.000000 69.022838 -57.752809 -7.160618 15.431772 -24.744141 3.404627 26.922818 -8.195234 -1.312808 0.000000 0.000000 0.000000 -7.125000 0.000000 0.000000 0.280288 31.451990 0.092898 0.000000 0.000000 0.000000 -64.819627 -69.957904 -14.041183 -9.411910 -15.814403 -1.310117 -19.674996 35.273630 19.678838 0.000000 0.000000 0.000000 7.125000 0.000000 0.000000 8.696184 50.575199 -1.202668
8.305797 14.678304 2.391040 2.281884 -2.586702 -6.375419 0.000000 0.000000 0.000000 -18.221654 1.281409 -14.901003 6.979223 15.314419 48.795789 2.120961 0.780913 -27.850746 0.579805 -4.875952 -13.555016 0.000000 0.000000 0.000000 16.577598 2.877838 -13.277473 -6.841349 -15.196853 48.271797 -1.061766 -9.762133 -25.280610 -0.689939 5.310273 -14.795650 -3.030046 -0.143073 -0.063539 1.818545 -0.185814 3.349255 3.572286 -0.213543 3.503366 -1.288522 -1.300428 -13.328058 -0.617456 -1.428357 10.017240 -0.102774 -0.792455 5.198167 0.000000 0.000000 0.000000 69.022330 -57.738081 -7.159563 15.432553 -24.745235 3.404979 26.934029 -8.272856 -1.269680 0.000000 0.000000 0.000000 -7.125000 0.000000 0.000000 0.289546 31.403784 0.096297 0.000000 0.000000 0.000000 -64.791578 -69.985641 -14.047238 -9.412184 -15.814872 -1.310195 -19.692927 35.292850 19.672197 0.000000 0.000000 0.000000 7.125000 0.000000 0.000000 8.676573 50.571331 -1.199113
8.307149 14.678033 2.390082 2.260198 -2.597167 -6.365814 0.000000 0.000000 0.000000 -18.207432 1.258427 -14.917281 6.981991 15.316751 48.806278 2.118486 0.824397 -27.850092 0.579943 -4.876535 -13.556725 0.000000 0.000000 0.000000 16.603339 2.897872 -13.279196 -6.841143 -15.196643 48.270935 -1.057156 -9.806757 -25.280849 -0.702708 5.357732 -14.931789 -3.006111 -0.144024 -0.059629 1.827109 -0.187963 3.358449 3.567650 -0.214314 3.510747 -1.349905 -1.323290 -13.204499 -0.517726 -1.463286 9.882272 -0.063093 -0.804202 5.136988 0.000000 0.000000 0.000000 69.067916 -57.741534 -7.118365 15.435355 -24.749083 3.406139 26.938299 -8.319957 -1.263354 0.000000 0.000000 0.000000 -7.125000 0.000000 0.000000 0.292965 31.396713 0.097492 0.000000 0.000000 0.000000 -64.769993 -69.971360 -13.843320 -9.446137 -15.868523 -1.319492 -19.856851 35.107129 19.785216 0.000000 0.000000 0.000000 7.125000 0.000000 0.000000 8.552215 50.714853 -1.211241
8.308477 14.677642 2.389105 2.233712 -2.608301 -6.355618 0.000000 0.000000 0.000000 -18.187470 1.234948 -14.934704 6.984960 15.319251 48.817528 2.116025 0.866939 -27.849233 0.579669 -4.875402 -13.553561 0.000000 0.000000 0.000000 16.634865 2.918264 -13.280680 -6.840869 -15.196369 48.269802 -1.052429 -9.853831 -25.282177 -0.716224 5.407970 -15.075900 -2.977086 -0.144688 -0.056894 1.836797 -0.189838 3.368606 3.561322 -0.214861 3.519732 -1.412878 -1.346573 -13.082498 -0.415219 -1.498796 9.747693 -0.022348 -0.816117 5.076242 0.000000 0.000000 0.000000 69.116435 -57.746144 -7.074612 15.438284 -24.753107 3.407350 26.942128 -8.365117 -1.259369 0.000000 0.000000 0.000000 -7.125000 0.000000 0.000000 0.296012 31.392260 0.098546 0.000000 0.000000 0.000000 -64.748820 -69.954406 -13.626039 -9.482233 -15.925558 -1.329376 -20.030066 34.908365 19.905849 0.000000 0.000000 0.000000 7.125000 0.000000 0.000000 8.421190 50.867754 -1.224366
8.309671 14.677073 2.387906 2.187361 -2.624917 -6.343669 0.000000 0.000000 0.000000 -18.142694 1.214278 -14.954341 6.988538 15.322256 48.831067 2.115154 0.888991 -27.851464 0.578014 -4.868534 -13.534038 0.000000 0.000000 0.000000 16.691293 2.949770 -13.281600 -6.840165 -15.195754 48.267094 -1.048311 -9.893237 -25.282094 -0.723664 5.435653 -15.155319 -2.929592 -0.144491 -0.058424 1.852904 -0.191030 3.383904 3.551264 -0.214843 3.536280 -1.454545 -1.371728 -13.008802 -0.346084 -1.535420 9.657941 0.003910 -0.830335 5.037070 0.000000 0.000000 0.000000 69.174522 -57.750694 -7.009924 15.443369 -24.760102 3.409467 26.944559 -8.392015 -1.257138 0.000000 0.000000 0.000000 -7.125000 0.000000 0.000000 0.297959 31.389767 0.099215 0.000000 0.000000 0.000000 -64.750231 -69.944153 -13.466958 -9.519295 -15.984093 -1.339556 -20.152971 34.758708 20.076554 0.000000 0.000000 0.000000 7.125000 0.000000 0.000000 8.356166 51.064085 -1.256080
8.310648 14.676214 2.386343 2.108645 -2.650466 -6.328863 0.000000 0.000000 0.000000 -18.057493 1.198184 -14.977584 6.993109 15.326084 48.848334 2.116873 0.877662 -27.858730 0.574108 -4.852322 -13.487863 0.000000 0.000000 0.000000 16.788291 2.999382 -13.281600 -6.838759 -15.194582 48.261820 -1.045186 -9.920153 -25.279711 -0.721203 5.426590 -15.129341 -2.852009 -0.142889 -0.066901 1.879468 -0.191108 3.407577 3.535130 -0.213906 3.565149 -1.461498 -1.399933 -13.013802 -0.331317 -1.573860 9.641221 0.006567 -0.848305 5.033046 0.000000 0.000000 0.000000 69.248199 -57.755147 -6.911128 15.451963 -24.771939 3.413061 26.944716 -8.389164 -1.257763 0.000000 0.000000 0.000000 -7.125000 0.000000 0.000000 0.298116 31.390471 0.099254 0.000000 0.000000 0.000000 -64.788437 -69.944817 -13.402696 -9.557930 -16.045074 -1.350221 -20.193912 34.689055 20.328836 0.000000 0.000000 0.000000 7.125000 0.000000 0.000000 8.398668 51.331173 -1.318076
8.311625 14.675354 2.384780 2.029929 -2.676014 -6.314057 0.000000 0.000000 0.000000 -17.972292 1.182089 -15.000828 6.997680 15.329913 48.865601 2.118591 0.866333 -27.865996 0.570201 -4.836110 -13.441688 0.000000 0.000000 0.000000 16.885290 3.048995 -13.281600 -6.837352 -15.193410 48.256547 -1.042061 -9.947069 -25.277328 -0.718742 5.417527 -15.103363 -2.774425 -0.141287 -0.075378 1.906032 -0.191186 3.431251 3.518996 -0.212968 3.594018 -1.468452 -1.428138 -13.018803 -0.316550 -1.612301 9.624501 0.009223 -0.866275 5.029022 0.000000 0.000000 0.000000 69.321876 -57.759601 -6.812333 15.460557 -24.783775 3.416655 26.944872 -8.386312 -1.258388 0.000000 0.000000 0.000000 -7.125000 0.000000 0.000000 0.298272 31.391174 0.099293 0.000000 0.000000 0.000000 -64.826643 -69.945481 -13.338434 -9.596565 -16.106055 -1.360886 -20.234852 34.619402 20.581119 0.000000 0.000000 0.000000 7.125000 0.000000 0.000000 8.441171 51.598261 -1.380072
8.313242 14.675809 2.383378 2.007049 -2.688998 -6.299252 0.000000 0.000000 0.000000 -17.957865 1.152115 -15.009840 7.000423 15.332235 48.875976 2.121592 0.863306 -27.884513 0.565205 -4.815122 -13.381954 0.000000 0.000000 0.000000 16.911963 3.093287 -13.289485 -6.836844 -15.192976 48.254574 -1.045475 -9.935873 -25.294946 -0.705799 5.369134 -14.964588 -2.758545 -0.145295 -0.099946 1.922499 -0.196906 3.459925 3.527094 -0.216903 3.638241 -1.449250 -1.440284 -13.040887 -0.346947 -1.627983 9.621083 -0.004788 -0.875302 5.031249 0.000000 0.000000 0.000000 69.388533 -57.773542 -6.682349 15.457484 -24.779553 3.415377 26.935316 -8.379742 -1.241095 0.000000 0.000000 0.000000 -7.125000 0.000000 0.000000 0.290735 31.371683 0.096896 0.000000 0.000000 0.000000 -64.913794 -69.962588 -13.356678 -9.630842 -16.160048 -1.370429 -20.179504 34.645268 20.898534 0.000000 0.000000 0.000000 7.125000 0.000000 0.000000 8.605702 51.914936 -1.476494
8.315000 14.676551 2.382011 1.996385 -2.699233 -6.284446 0.000000 0.000000 0.000000 -17.958920 1.119105 -15.015739 7.002767 15.334227 48.884844 2.124874 0.862095 -27.905491 0.559970 -4.793089 -13.319255 0.000000 0.000000 0.000000 16.923253 3.136415 -13.299095 -6.836531 -15.192702 48.253324 -1.050319 -9.916341 -25.316940 -0.690564 5.312138 -14.801140 -2.756162 -0.150530 -0.128034 1.936758 -0.203859 3.489692 3.540494 -0.221903 3.685822 -1.424326 -1.448917 -13.066709 -0.387223 -1.638686 9.620575 -0.022446 -0.882372 5.034843 0.000000 0.000000 0.000000 69.453655 -57.789559 -6.545543 15.451859 -24.771819 3.413033 26.923636 -8.372359 -1.219883 0.000000 0.000000 0.000000 -7.125000 0.000000 0.000000 0.281516 31.347775 0.093966 0.000000 0.000000 0.000000 -65.011652 -69.983293 -13.392969 -9.664164 -16.212512 -1.379726 -20.103092 34.692029 21.230196 0.000000 0.000000 0.000000 7.125000 0.000000 0.000000 8.796925 52.242458 -1.580446
